<?xml version="1.0" encoding="UTF-8"?>
<svg version="1.1" xmlns="http://www.w3.org/2000/svg" width="395" height="583">
<path d="M0 0 C15.03059011 9.50709931 18.59350834 35.21692629 22.38378906 51.03637695 C23.38962282 55.74861457 24.22279891 60.49077528 25.06640625 65.234375 C61.04962916 66.01391676 97.02911584 66.48318989 133.01947021 66.76660156 C139.49216439 66.81820915 145.96483042 66.87314347 152.4375 66.92773438 C164.98044447 67.0330638 177.52341553 67.13472694 190.06640625 67.234375 C191.14913395 92.35144453 191.20597925 117.44574776 191.18247187 142.58213031 C191.17809214 148.47461936 191.17961905 154.36710756 191.18037415 160.25959778 C191.18089468 170.43188175 191.17779747 180.60415923 191.17213631 190.77644157 C191.16621303 201.42672682 191.16236397 212.07701006 191.16128349 222.72729683 C191.16121475 223.39338505 191.16114601 224.05947327 191.16107519 224.74574598 C191.16073678 228.12946991 191.16043543 231.51319384 191.16014832 234.89691777 C191.15805663 258.76648534 191.15134385 282.63604955 191.1418457 306.50561523 C191.13263813 329.6719562 191.12556591 352.83829624 191.12133789 376.00463867 C191.12120636 376.72069631 191.12107484 377.43675395 191.12093933 378.1745103 C191.11962063 385.36648085 191.11834484 392.5584514 191.11710047 399.75042196 C191.11456532 414.39689288 191.11174407 429.04336375 191.10874939 443.68983459 C191.1086121 444.36302427 191.10847481 445.03621394 191.10833336 445.7298033 C191.09915701 490.56466194 191.08329373 535.39951867 191.06640625 580.234375 C185.68985771 580.81140447 180.35553871 581.35160217 174.94441223 581.43572998 C173.81502291 581.45487206 172.68563358 581.47401413 171.52202034 581.49373627 C170.29248068 581.50966072 169.06294102 581.52558517 167.79614258 581.54199219 C166.42349465 581.56219878 165.05084903 581.5825629 163.67820549 581.60306549 C158.98087518 581.67063465 154.28342733 581.72611315 149.5859375 581.78125 C147.87659002 581.80214624 146.16724262 581.82304835 144.45789528 581.84395599 C88.53404929 582.51344797 32.60149025 582.45699474 -23.32557869 582.47180939 C-26.7407341 582.47273256 -30.15588951 582.47366527 -33.57104492 582.47460938 C-34.84232085 582.47494617 -34.84232085 582.47494617 -36.13927911 582.47528976 C-50.08280133 582.47929244 -64.02627323 582.49698302 -77.96977577 582.5199689 C-92.45008029 582.54364205 -106.93035916 582.556141 -121.41068333 582.55731082 C-129.47811075 582.55822392 -137.54547022 582.5638944 -145.6128788 582.58213043 C-152.41691931 582.59746811 -159.22087027 582.60268525 -166.02492479 582.59439233 C-169.48723162 582.59047859 -172.94935737 582.59145471 -176.41164207 582.60544968 C-180.15673259 582.61805705 -183.9013522 582.61235566 -187.6464386 582.60186768 C-188.74292908 582.60992408 -189.83941955 582.61798048 -190.96913701 582.62628102 C-191.96868388 582.61969118 -192.96823074 582.61310133 -193.9980669 582.6063118 C-195.2923633 582.60720743 -195.2923633 582.60720743 -196.6128071 582.60812116 C-199.67262225 582.11535973 -200.89206068 581.60459585 -202.93359375 579.234375 C-203.32947883 576.32133755 -203.46344018 573.78443377 -203.42578506 570.86913776 C-203.43270813 569.56727447 -203.43270813 569.56727447 -203.43977106 568.23911092 C-203.45043507 565.3044758 -203.43235178 562.37070268 -203.41461182 559.43611145 C-203.41635466 557.3216224 -203.41985428 555.20713418 -203.42496848 553.09265059 C-203.43394863 547.26171323 -203.41786309 541.43106756 -203.39785624 535.60016739 C-203.3806393 529.31999769 -203.38642385 523.03984546 -203.38946533 516.75965881 C-203.39156635 505.87201808 -203.37911777 494.98448675 -203.35651398 484.09687233 C-203.33286257 472.67542888 -203.31745358 461.25402353 -203.31310272 449.83255577 C-203.31282776 449.12295244 -203.31255281 448.41334911 -203.31226951 447.68224264 C-203.31091622 444.07866656 -203.30971067 440.47509044 -203.30856201 436.87151428 C-203.30015575 411.3336691 -203.27319346 385.79587375 -203.23535156 360.25805664 C-203.19862634 335.44523382 -203.17028577 310.63242462 -203.15332031 285.81958008 C-203.15279421 285.05501803 -203.1522681 284.29045598 -203.15172606 283.50272539 C-203.14645207 275.82482359 -203.1413488 268.14692168 -203.13637062 260.46901968 C-203.1262252 244.82762759 -203.11494019 229.18623638 -203.10296631 213.54484558 C-203.10241715 212.82564712 -203.10186799 212.10644866 -203.10130219 211.36545631 C-203.0644867 163.32174135 -203.00102134 115.27805572 -202.93359375 67.234375 C-202.10120288 67.22802709 -202.10120288 67.22802709 -201.25199604 67.22155094 C-187.69478514 67.11785223 -174.13762264 67.00910293 -160.58049488 66.89503574 C-154.02413828 66.84002179 -147.46777709 66.7866379 -140.91137695 66.73706055 C-134.57655428 66.68909736 -128.24178128 66.63674616 -121.90701866 66.58143425 C-119.4979038 66.56115449 -117.0887754 66.54241914 -114.679636 66.52530098 C-98.5691831 66.47436556 -98.5691831 66.47436556 -82.50016785 65.45497131 C-77.4879339 65.02417123 -72.46079271 65.08737929 -67.43359375 65.109375 C-66.35150635 65.11130859 -65.26941895 65.11324219 -64.15454102 65.11523438 C-56.70635484 65.15554023 -49.3414557 65.40964285 -41.93359375 66.234375 C-41.78083984 64.60435547 -41.78083984 64.60435547 -41.625 62.94140625 C-38.96298081 41.85358467 -30.22496043 14.71558982 -13.93359375 0.234375 C-9.33307689 -1.29913062 -4.60680641 -1.8241092 0 0 Z M-8.93359375 10.234375 C-22.13855154 25.42007646 -27.00668092 47.37876712 -31.72412109 66.42626953 C-31.97242676 67.4161084 -32.22073242 68.40594727 -32.4765625 69.42578125 C-32.79210083 70.74557983 -32.79210083 70.74557983 -33.11401367 72.09204102 C-33.93359375 74.234375 -33.93359375 74.234375 -36.93359375 76.234375 C-39.61363577 76.47485146 -42.19913578 76.60710998 -44.8828125 76.6484375 C-45.65542923 76.66780365 -46.42804596 76.6871698 -47.22407532 76.7071228 C-49.68963615 76.76685979 -52.15524382 76.81327986 -54.62109375 76.859375 C-56.29364005 76.89756025 -57.9661668 76.93661231 -59.63867188 76.9765625 C-63.73687692 77.07418724 -67.834876 77.1538001 -71.93359375 77.234375 C-71.93359375 84.494375 -71.93359375 91.754375 -71.93359375 99.234375 C-29.03359375 99.234375 13.86640625 99.234375 58.06640625 99.234375 C58.06640625 91.974375 58.06640625 84.714375 58.06640625 77.234375 C55.20210938 77.17378906 52.3378125 77.11320312 49.38671875 77.05078125 C46.61992692 76.98901523 43.85317697 76.92561785 41.08642578 76.86206055 C39.16003121 76.81868499 37.23359754 76.77701186 35.30712891 76.73706055 C32.54187217 76.67942138 29.77681275 76.61570884 27.01171875 76.55078125 C26.14709015 76.53406876 25.28246155 76.51735626 24.39163208 76.50013733 C18.29414966 76.34824671 18.29414966 76.34824671 16.06640625 75.234375 C15.47558594 73.15917969 15.47558594 73.15917969 14.98828125 70.40625 C14.80007812 69.38877686 14.611875 68.37130371 14.41796875 67.32299805 C14.12019531 65.67037964 14.12019531 65.67037964 13.81640625 63.984375 C9.09555786 35.91706969 9.09555786 35.91706969 -3.93359375 11.234375 C-6.56125764 10.27217798 -6.56125764 10.27217798 -8.93359375 10.234375 Z M-192.93359375 77.234375 C-192.93359375 240.584375 -192.93359375 403.934375 -192.93359375 572.234375 C-165.21359375 571.904375 -137.49359375 571.574375 -108.93359375 571.234375 C-90.33139237 571.175754 -71.73218051 571.1310048 -53.13037777 571.16591263 C-46.72309171 571.17637936 -40.31580115 571.17948576 -33.9085083 571.18334961 C-23.21894891 571.1905243 -12.52939723 571.20051023 -1.83984375 571.21386719 C-0.84439013 571.21510891 -0.84439013 571.21510891 0.17117366 571.21637571 C4.20950174 571.22143434 8.24782969 571.22658867 12.28615761 571.23177147 C18.41277676 571.23962806 24.53939605 571.24736419 30.66601562 571.25488281 C31.67648283 571.256125 31.67648283 571.256125 32.70736352 571.25739229 C44.09173767 571.27125533 55.47611086 571.28086807 66.86049151 571.28779316 C73.15414746 571.29186638 79.44778523 571.29795917 85.74143219 571.30953979 C117.53071858 571.36758753 149.28703382 571.04986229 181.06640625 570.234375 C181.05409503 569.33492301 181.04178381 568.43547101 181.02909952 567.5087629 C180.2439914 509.6130788 179.92291725 451.72870395 179.96286848 393.82800203 C179.97025545 382.8120155 179.97153882 371.79603011 179.97266418 360.78004146 C179.97481755 341.15763936 179.98137295 321.53524157 179.9909668 301.9128418 C180.00023977 282.92618836 180.00727126 263.93953612 180.01147461 244.95288086 C180.01186869 243.17783513 180.01186869 243.17783513 180.01227074 241.36692988 C180.0135764 235.42645157 180.01483996 229.48597324 180.01608264 223.54549491 C180.02633871 174.77511777 180.0447111 126.00474866 180.06640625 77.234375 C143.43640625 77.234375 106.80640625 77.234375 69.06640625 77.234375 C69.06640625 80.864375 69.06640625 84.494375 69.06640625 88.234375 C103.38640625 88.234375 137.70640625 88.234375 173.06640625 88.234375 C173.39640625 244.324375 173.72640625 400.414375 174.06640625 561.234375 C57.57640625 561.564375 -58.91359375 561.894375 -178.93359375 562.234375 C-178.93359375 562.894375 -178.93359375 563.554375 -178.93359375 564.234375 C-180.58359375 564.234375 -182.23359375 564.234375 -183.93359375 564.234375 C-183.93359375 407.484375 -183.93359375 250.734375 -183.93359375 89.234375 C-150.60359375 89.234375 -117.27359375 89.234375 -82.93359375 89.234375 C-82.93359375 85.274375 -82.93359375 81.314375 -82.93359375 77.234375 C-119.23359375 77.234375 -155.53359375 77.234375 -192.93359375 77.234375 Z M-177.93359375 95.234375 C-177.93359375 247.364375 -177.93359375 399.494375 -177.93359375 556.234375 C-63.75359375 556.234375 50.42640625 556.234375 168.06640625 556.234375 C168.06640625 403.774375 168.06640625 251.314375 168.06640625 94.234375 C135.39640625 94.234375 102.72640625 94.234375 69.06640625 94.234375 C69.06640625 95.884375 69.06640625 97.534375 69.06640625 99.234375 C99.42640625 99.234375 129.78640625 99.234375 161.06640625 99.234375 C161.06640625 247.404375 161.06640625 395.574375 161.06640625 548.234375 C50.84640625 548.234375 -59.37359375 548.234375 -172.93359375 548.234375 C-172.93359375 400.064375 -172.93359375 251.894375 -172.93359375 99.234375 C-143.23359375 99.234375 -113.53359375 99.234375 -82.93359375 99.234375 C-82.93359375 97.584375 -82.93359375 95.934375 -82.93359375 94.234375 C-114.60201475 94.234375 -146.26696461 94.89749597 -177.93359375 95.234375 Z M-162.93359375 110.234375 C-162.93359375 251.474375 -162.93359375 392.714375 -162.93359375 538.234375 C-59.64359375 538.234375 43.64640625 538.234375 150.06640625 538.234375 C150.06640625 396.994375 150.06640625 255.754375 150.06640625 110.234375 C123.33640625 110.234375 96.60640625 110.234375 69.06640625 110.234375 C68.40640625 112.544375 67.74640625 114.854375 67.06640625 117.234375 C65.31151327 118.98926798 62.84452855 118.36815768 60.46157837 118.37481689 C59.24448685 118.38052704 58.02739532 118.38623718 56.77342224 118.39212036 C55.41226206 118.39336585 54.05110177 118.39449092 52.68994141 118.39550781 C51.26610688 118.40013366 49.84227359 118.405158 48.41844177 118.41055298 C44.54032455 118.42370173 40.66222465 118.43012676 36.78408861 118.43456364 C34.36337454 118.43749044 31.94266525 118.44159449 29.52195358 118.44606781 C21.95447645 118.45974939 14.38701019 118.46941275 6.81952155 118.4732697 C-1.92782486 118.47775195 -10.67501513 118.49530474 -19.42231405 118.5242703 C-26.17561935 118.54585974 -32.92888064 118.55597252 -39.6822201 118.55731082 C-43.71939436 118.55836084 -47.75642198 118.5643102 -51.79356003 118.58213043 C-55.59056988 118.59856393 -59.38732213 118.60078983 -63.18435478 118.59199142 C-64.57957713 118.59121849 -65.97481306 118.59559734 -67.37000084 118.60544968 C-69.27155843 118.61809237 -71.17321869 118.61052877 -73.07479858 118.60186768 C-74.14001425 118.60333424 -75.20522991 118.6048008 -76.30272484 118.6063118 C-78.93359375 118.234375 -78.93359375 118.234375 -80.73726845 117.02390671 C-81.93359375 115.234375 -81.93359375 115.234375 -82.93359375 110.234375 C-109.33359375 110.234375 -135.73359375 110.234375 -162.93359375 110.234375 Z " fill="#000000" transform="translate(202.93359375,0.765625)"/>
<path d="M0 0 C0.11245301 45.08023871 0.22371545 90.16048031 0.32835388 135.24073792 C0.33067557 136.24073962 0.33067557 136.24073962 0.33304417 137.26094337 C0.3666704 151.7476779 0.40007383 166.23441294 0.4332476 180.72114852 C0.44951618 187.82492267 0.46583402 194.92869672 0.48217773 202.0324707 C0.48380334 202.73940054 0.48542894 203.44633037 0.4871038 204.17468232 C0.53986504 227.1090555 0.5958821 250.04341933 0.65357857 272.97778058 C0.71282719 296.53593286 0.76880913 320.09409069 0.82065109 343.65226049 C0.8540807 358.84025962 0.89041208 374.02824537 0.93101191 389.21622706 C0.95730928 399.15908158 0.97995645 409.10194013 0.99967117 419.04480987 C1.0111737 424.79062505 1.02434489 430.5364243 1.04183006 436.28222466 C1.05777398 441.53315794 1.06917783 446.78407995 1.07683109 452.03503168 C1.0804392 453.94352013 1.0857739 455.85200618 1.09292836 457.76048463 C1.10234516 460.33698491 1.1057084 462.91342074 1.10743046 465.48993587 C1.11166182 466.24616425 1.11589318 467.00239263 1.12025276 467.78153703 C1.1141458 472.8858542 1.1141458 472.8858542 0 474 C-1.87657049 474.09761386 -3.7568722 474.12371347 -5.63597965 474.12304783 C-6.86760934 474.12503888 -8.09923903 474.12702993 -9.36819082 474.12908131 C-10.75262728 474.12622772 -12.13706355 474.12328211 -13.52149963 474.12025452 C-14.97841741 474.12069009 -16.43533511 474.12156474 -17.89225239 474.12284368 C-21.9147585 474.12509137 -25.93723825 474.12106364 -29.959741 474.11606562 C-34.29037057 474.11176521 -38.62099853 474.11320725 -42.95162964 474.1139679 C-50.46105365 474.11449339 -57.97046899 474.11134392 -65.47989082 474.10573006 C-76.33738405 474.09761852 -87.19487307 474.09500019 -98.05236899 474.09374207 C-115.66601855 474.091551 -133.27966349 474.08488944 -150.89331055 474.07543945 C-168.00789364 474.06626674 -185.12247549 474.05918522 -202.23706055 474.05493164 C-203.81828062 474.05453756 -203.81828062 474.05453756 -205.43144453 474.05413551 C-210.71955104 474.05283051 -216.00765756 474.0515668 -221.29576409 474.05032361 C-265.19717926 474.03994929 -309.09858939 474.0223295 -353 474 C-353 474.66 -353 475.32 -353 476 C-354.65 476 -356.3 476 -358 476 C-358 319.25 -358 162.5 -358 1 C-324.67 1 -291.34 1 -257 1 C-256.505 2.98 -256.505 2.98 -256 5 C-256.66 5.66 -257.32 6.32 -258 7 C-289.02 7 -320.04 7 -352 7 C-352 159.13 -352 311.26 -352 468 C-237.82 468 -123.64 468 -6 468 C-6 315.54 -6 163.08 -6 6 C-38.67 6 -71.34 6 -105 6 C-106 5 -106 5 -106.0625 2.4375 C-106.041875 1.633125 -106.02125 0.82875 -106 0 C-92.76999832 -0.1537652 -79.53994708 -0.30194677 -66.30980301 -0.4429636 C-60.16678692 -0.50861674 -54.02380477 -0.57620651 -47.88085938 -0.64819336 C-41.95464051 -0.71756969 -36.02838653 -0.78189657 -30.10207367 -0.84269524 C-27.83899692 -0.86680513 -25.57593894 -0.89274676 -23.31290436 -0.92053413 C-20.14776035 -0.9590881 -16.98261277 -0.99117938 -13.81738281 -1.02172852 C-12.87798859 -1.03467453 -11.93859436 -1.04762054 -10.97073364 -1.06095886 C-10.10699127 -1.06799835 -9.2432489 -1.07503784 -8.35333252 -1.08229065 C-7.60483662 -1.09058679 -6.85634071 -1.09888292 -6.08516312 -1.10743046 C-3.93615479 -0.99671061 -2.07498304 -0.54745236 0 0 Z " fill="#C0E1DE" transform="translate(377,89)"/>
<path d="M0 0 C4.3049777 -0.07451364 8.60960734 -0.12877223 12.91503906 -0.16479492 C14.37767075 -0.17982196 15.84025782 -0.20024955 17.30273438 -0.22631836 C19.4128728 -0.26297267 21.52241226 -0.27978676 23.6328125 -0.29296875 C24.90012207 -0.3086792 26.16743164 -0.32438965 27.47314453 -0.34057617 C32.83320021 0.17702577 35.97587701 1.97587701 39.75 5.75 C43.68554298 11.43467319 44.344983 17.21754882 44.3125 24 C44.32861328 24.67289062 44.34472656 25.34578125 44.36132812 26.0390625 C44.36627185 31.16076654 43.2182516 34.50218834 41 39 C40.608125 39.804375 40.21625 40.60875 39.8125 41.4375 C39.544375 41.953125 39.27625 42.46875 39 43 C39.928125 44.051875 39.928125 44.051875 40.875 45.125 C45.01839955 50.73077586 45.34055981 56.15187017 45.3125 62.875 C45.32861328 63.63941406 45.34472656 64.40382813 45.36132812 65.19140625 C45.36661894 71.42398947 44.30184977 76.98137169 40.45703125 82.0234375 C39.91433594 82.46945312 39.37164062 82.91546875 38.8125 83.375 C38.28269531 83.83648437 37.75289062 84.29796875 37.20703125 84.7734375 C29.87030806 88.85083764 21.7006764 88.27278701 13.5625 88.1875 C12.36689453 88.18685547 11.17128906 88.18621094 9.93945312 88.18554688 C1.14052679 88.14052679 1.14052679 88.14052679 0 87 C-0.09514592 84.29161914 -0.12554932 81.60881487 -0.11352539 78.90014648 C-0.11367142 78.05143982 -0.11381744 77.20273315 -0.1139679 76.32830811 C-0.11326848 73.50921109 -0.10547478 70.69017929 -0.09765625 67.87109375 C-0.09579217 65.92196183 -0.09436822 63.97282945 -0.09336853 62.0236969 C-0.08954255 56.88293168 -0.07971159 51.74219453 -0.06866455 46.60144043 C-0.05845215 41.35994852 -0.05387128 36.1184521 -0.04882812 30.87695312 C-0.03808939 20.58462306 -0.02101201 10.29231386 0 0 Z M17 14 C17 21.26 17 28.52 17 36 C23.54889055 35.72768663 23.54889055 35.72768663 25.9140625 33.27734375 C28.34189094 28.18589057 27.7130053 22.0970744 25.9375 16.875 C23.59797068 14.24398819 23.59797068 14.24398819 17 14 Z M17 50 C17 57.59 17 65.18 17 73 C23.63019987 73.64715023 23.63019987 73.64715023 27 71 C28.05848634 67.82454097 28.16670878 65.45991204 28.1875 62.125 C28.20876953 60.58199219 28.20876953 60.58199219 28.23046875 59.0078125 C27.99321815 55.91149109 27.40832603 53.75735412 26 51 C23.32917961 49.47825081 23.32917961 49.47825081 17 50 Z " fill="#000000" transform="translate(88,325)"/>
<path d="M0 0 C4.3049777 -0.07451364 8.60960734 -0.12877223 12.91503906 -0.16479492 C14.37767075 -0.17982196 15.84025782 -0.20024955 17.30273438 -0.22631836 C19.4128728 -0.26297267 21.52241226 -0.27978676 23.6328125 -0.29296875 C24.90012207 -0.3086792 26.16743164 -0.32438965 27.47314453 -0.34057617 C32.83320021 0.17702577 35.97587701 1.97587701 39.75 5.75 C43.68554298 11.43467319 44.344983 17.21754882 44.3125 24 C44.32861328 24.67289063 44.34472656 25.34578125 44.36132812 26.0390625 C44.36627185 31.16076654 43.2182516 34.50218834 41 39 C40.608125 39.804375 40.21625 40.60875 39.8125 41.4375 C39.544375 41.953125 39.27625 42.46875 39 43 C39.928125 44.051875 39.928125 44.051875 40.875 45.125 C45.01839955 50.73077586 45.34055981 56.15187017 45.3125 62.875 C45.32861328 63.63941406 45.34472656 64.40382813 45.36132812 65.19140625 C45.36661894 71.42398947 44.30184977 76.98137169 40.45703125 82.0234375 C39.91433594 82.46945312 39.37164062 82.91546875 38.8125 83.375 C38.28269531 83.83648437 37.75289062 84.29796875 37.20703125 84.7734375 C29.87030806 88.85083764 21.7006764 88.27278701 13.5625 88.1875 C12.36689453 88.18685547 11.17128906 88.18621094 9.93945312 88.18554688 C1.14052679 88.14052679 1.14052679 88.14052679 0 87 C-0.09514592 84.29161914 -0.12554932 81.60881487 -0.11352539 78.90014648 C-0.11367142 78.05143982 -0.11381744 77.20273315 -0.1139679 76.32830811 C-0.11326848 73.50921109 -0.10547478 70.69017929 -0.09765625 67.87109375 C-0.09579217 65.92196183 -0.09436822 63.97282945 -0.09336853 62.0236969 C-0.08954255 56.88293168 -0.07971159 51.74219453 -0.06866455 46.60144043 C-0.05845215 41.35994852 -0.05387128 36.1184521 -0.04882812 30.87695312 C-0.03808939 20.58462306 -0.02101201 10.29231386 0 0 Z M17 14 C17 21.26 17 28.52 17 36 C23.54889055 35.72768663 23.54889055 35.72768663 25.9140625 33.27734375 C28.34189094 28.18589057 27.7130053 22.0970744 25.9375 16.875 C23.59797068 14.24398819 23.59797068 14.24398819 17 14 Z M17 50 C17 57.59 17 65.18 17 73 C23.63019987 73.64715023 23.63019987 73.64715023 27 71 C28.05848634 67.82454097 28.16670878 65.45991204 28.1875 62.125 C28.20876953 60.58199219 28.20876953 60.58199219 28.23046875 59.0078125 C27.99321815 55.91149109 27.40832603 53.75735412 26 51 C23.32917961 49.47825081 23.32917961 49.47825081 17 50 Z " fill="#000000" transform="translate(69,181)"/>
<path d="M0 0 C5.28 0 10.56 0 16 0 C16.02255024 11.32611985 16.04091463 22.65222491 16.05181217 33.97836208 C16.05704119 39.23696664 16.06413918 44.4955551 16.07543945 49.75415039 C16.08626766 54.82453127 16.09227669 59.89489662 16.09487724 64.96528816 C16.09673161 66.90426948 16.10035245 68.84324991 16.10573006 70.78222466 C16.1129396 73.4882176 16.11399098 76.19414556 16.11352539 78.90014648 C16.11712067 79.71006546 16.12071594 80.51998444 16.12442017 81.35444641 C16.11405216 86.88594784 16.11405216 86.88594784 15 88 C13.19187276 88.15091913 11.37669383 88.22169008 9.5625 88.25 C8.57378906 88.27578125 7.58507812 88.3015625 6.56640625 88.328125 C5.71949219 88.21984375 4.87257813 88.1115625 4 88 C3.34 87.01 2.68 86.02 2 85 C0.5459375 85.99 0.5459375 85.99 -0.9375 87 C-5.26653525 89.45370419 -9.11807073 89.87304575 -14 89 C-18.86160775 86.61506035 -21.58523697 83.82952606 -24 79 C-26.26931072 70.22545202 -26.21265362 61.41439844 -25.88842773 52.43505859 C-25.81213023 50.2393588 -25.76344275 48.04416427 -25.71679688 45.84765625 C-25.25332005 29.09462152 -25.25332005 29.09462152 -19.4375 23.5625 C-15.64433305 21.13098272 -13.51716743 20.83964644 -9 20.8125 C-7.9275 20.79832031 -6.855 20.78414063 -5.75 20.76953125 C-3 21 -3 21 -1 23 C-0.67 15.41 -0.34 7.82 0 0 Z M-9 36 C-10.58627826 46.90566306 -11.91953403 61.2578977 -9 72 C-7.54316648 73.74473113 -7.54316648 73.74473113 -6 75 C-2.27385847 73.88145414 -2.27385847 73.88145414 0 71 C0.2356996 66.48706684 0.22842295 61.97026544 0.24023438 57.4519043 C0.24991811 55.20648855 0.28092957 52.96199688 0.3125 50.71679688 C0.31903252 49.28385959 0.32428202 47.85091577 0.328125 46.41796875 C0.3374707 45.11625732 0.34681641 43.8145459 0.35644531 42.47338867 C-0.01886347 38.81618453 -0.79811202 36.90784478 -3 34 C-5.08428209 34 -7.09817964 35.21976601 -9 36 Z " fill="#000000" transform="translate(287,325)"/>
<path d="M0 0 C5.28 0 10.56 0 16 0 C16.02255024 11.32611985 16.04091463 22.65222491 16.05181217 33.97836208 C16.05704119 39.23696664 16.06413918 44.4955551 16.07543945 49.75415039 C16.08626766 54.82453127 16.09227669 59.89489662 16.09487724 64.96528816 C16.09673161 66.90426948 16.10035245 68.84324991 16.10573006 70.78222466 C16.1129396 73.4882176 16.11399098 76.19414556 16.11352539 78.90014648 C16.11712067 79.71006546 16.12071594 80.51998444 16.12442017 81.35444641 C16.11405216 86.88594784 16.11405216 86.88594784 15 88 C13.19187276 88.15091913 11.37669383 88.22169008 9.5625 88.25 C8.57378906 88.27578125 7.58507812 88.3015625 6.56640625 88.328125 C5.71949219 88.21984375 4.87257812 88.1115625 4 88 C3.34 87.01 2.68 86.02 2 85 C0.5459375 85.99 0.5459375 85.99 -0.9375 87 C-5.26653525 89.45370419 -9.11807073 89.87304575 -14 89 C-18.86160775 86.61506035 -21.58523697 83.82952606 -24 79 C-26.26931072 70.22545202 -26.21265362 61.41439844 -25.88842773 52.43505859 C-25.81213023 50.2393588 -25.76344275 48.04416427 -25.71679688 45.84765625 C-25.25332005 29.09462152 -25.25332005 29.09462152 -19.4375 23.5625 C-15.64433305 21.13098272 -13.51716743 20.83964644 -9 20.8125 C-7.9275 20.79832031 -6.855 20.78414062 -5.75 20.76953125 C-3 21 -3 21 -1 23 C-0.67 15.41 -0.34 7.82 0 0 Z M-9 36 C-10.58627826 46.90566306 -11.91953403 61.2578977 -9 72 C-7.54316648 73.74473113 -7.54316648 73.74473113 -6 75 C-2.27385847 73.88145414 -2.27385847 73.88145414 0 71 C0.2356996 66.48706684 0.22842295 61.97026544 0.24023438 57.4519043 C0.24991811 55.20648855 0.28092957 52.96199688 0.3125 50.71679688 C0.31903252 49.28385959 0.32428202 47.85091577 0.328125 46.41796875 C0.3374707 45.11625732 0.34681641 43.8145459 0.35644531 42.47338867 C-0.01886347 38.81618453 -0.79811202 36.90784478 -3 34 C-5.08428209 34 -7.09817964 35.21976601 -9 36 Z " fill="#000000" transform="translate(239,181)"/>
<path d="M0 0 C1.27875 0.00257813 2.5575 0.00515625 3.875 0.0078125 C5.15375 0.00523437 6.4325 0.00265625 7.75 0 C10.875 0.1328125 10.875 0.1328125 11.875 1.1328125 C12.03444828 3.04183118 12.12656601 4.95652544 12.19140625 6.87109375 C12.23330078 8.07531982 12.27519531 9.2795459 12.31835938 10.52026367 C12.35767578 11.81552979 12.39699219 13.1107959 12.4375 14.4453125 C12.48068359 15.75282471 12.52386719 17.06033691 12.56835938 18.4074707 C12.83522545 27.04620082 12.96581054 35.67346157 12.83813477 44.31567383 C12.68407124 48.35376344 12.68407124 48.35376344 13.875 52.1328125 C15.54111905 52.1755335 17.20882885 52.17345082 18.875 52.1328125 C20.49942501 50.50838749 20.03261078 48.68963492 20.06445312 46.4453125 C20.08117065 45.44757813 20.09788818 44.44984375 20.1151123 43.421875 C20.12868774 42.33648437 20.14226318 41.25109375 20.15625 40.1328125 C20.17465942 39.02679688 20.19306885 37.92078125 20.21203613 36.78125 C20.27100123 33.23182676 20.32373096 29.68235478 20.375 26.1328125 C20.44240617 21.4660378 20.51607508 16.79942629 20.59375 12.1328125 C20.60732544 11.04742187 20.62090088 9.96203125 20.6348877 8.84375 C20.65160522 7.84601563 20.66832275 6.84828125 20.68554688 5.8203125 C20.69807495 4.93730469 20.71060303 4.05429688 20.72351074 3.14453125 C20.875 1.1328125 20.875 1.1328125 21.875 0.1328125 C24.20660055 0.03371948 26.54129942 0.00310746 28.875 0.0078125 C30.15375 0.00523437 31.4325 0.00265625 32.75 0 C35.875 0.1328125 35.875 0.1328125 36.875 1.1328125 C36.97435148 3.15231459 37.00299508 5.17532165 37.00439453 7.19726562 C37.00754669 8.49531128 37.01069885 9.79335693 37.01394653 11.1307373 C37.01215675 12.55851271 37.0101058 13.98628781 37.0078125 15.4140625 C37.00848558 16.86755388 37.00945564 18.32104514 37.01071167 19.77453613 C37.01218846 22.82447377 37.0100347 25.87438216 37.00537109 28.92431641 C36.9996738 32.84211809 37.00295291 36.75985128 37.00894356 40.67765045 C37.01254969 43.68012004 37.01141035 46.68257327 37.00881577 49.68504333 C37.00814664 51.12999988 37.00897442 52.57495789 37.01129532 54.01991272 C37.01382265 56.03606133 37.00929052 58.05221512 37.00439453 60.06835938 C37.00359894 61.21784058 37.00280334 62.36732178 37.00198364 63.55163574 C36.875 66.1328125 36.875 66.1328125 35.875 67.1328125 C33.89880553 67.25796178 31.91761827 67.3085401 29.9375 67.3203125 C28.85597656 67.33449219 27.77445313 67.34867187 26.66015625 67.36328125 C23.875 67.1328125 23.875 67.1328125 21.875 65.1328125 C21.111875 65.6484375 20.34875 66.1640625 19.5625 66.6953125 C14.04195091 68.84739096 8.22615152 68.41851184 2.67578125 66.2890625 C-0.891152 63.99879733 -2.71413248 59.86190016 -3.66891479 55.84381104 C-4.12903835 53.10880832 -4.25197045 50.57923326 -4.25439453 47.80761719 C-4.25754669 46.77014343 -4.26069885 45.73266968 -4.26394653 44.66375732 C-4.2619223 43.55526428 -4.25989807 42.44677124 -4.2578125 41.3046875 C-4.25876923 40.15993958 -4.25972595 39.01519165 -4.26071167 37.83575439 C-4.26139114 35.42175237 -4.25955313 33.0077485 -4.25537109 30.59375 C-4.24999994 26.88277129 -4.25533407 23.17191254 -4.26171875 19.4609375 C-4.26105831 17.11718723 -4.25977787 14.77343704 -4.2578125 12.4296875 C-4.25983673 11.31309753 -4.26186096 10.19650757 -4.26394653 9.04608154 C-4.26079437 8.02121643 -4.25764221 6.99635132 -4.25439453 5.94042969 C-4.25359894 5.03395691 -4.25280334 4.12748413 -4.25198364 3.19354248 C-4.04363698 -0.18757184 -3.46913841 0.14743838 0 0 Z " fill="#000000" transform="translate(123.125,201.8671875)"/>
<path d="M0 0 C4.43659033 3.72668903 6.88140513 8.00766202 7.59484863 13.79956055 C7.7114673 17.07191943 7.69991988 20.31986268 7.640625 23.59375 C7.63496521 24.78101685 7.62930542 25.96828369 7.62347412 27.19152832 C7.60119009 30.96143931 7.55100585 34.73037913 7.5 38.5 C7.47992482 41.06509038 7.46167584 43.63019575 7.4453125 46.1953125 C7.401351 52.46391247 7.33237637 58.73179191 7.25 65 C2.96 65 -1.33 65 -5.75 65 C-6.08 64.01 -6.41 63.02 -6.75 62 C-7.58917969 62.71736328 -7.58917969 62.71736328 -8.4453125 63.44921875 C-12.24789964 66.00790874 -16.25470378 66 -20.75 66 C-25.3456951 65.04617649 -28.38549597 63.27104559 -31.75 60 C-33.95904553 55.78203153 -34.08415609 51.7272216 -34.0625 47.0625 C-34.07861328 46.37220703 -34.09472656 45.68191406 -34.11132812 44.97070312 C-34.11655586 39.45544619 -32.96362932 35.40878555 -29.19921875 31.3125 C-22.92919408 26.64126211 -15.97239742 23.86055628 -8.75 21 C-9.08 18.69 -9.41 16.38 -9.75 14 C-13.33327753 12.99782936 -13.33327753 12.99782936 -16.75 14 C-17.08 16.31 -17.41 18.62 -17.75 21 C-22.7 21 -27.65 21 -32.75 21 C-32.14561129 7.5523511 -32.14561129 7.5523511 -27.75 2 C-21.00012674 -3.98284221 -7.84538722 -4.35854845 0 0 Z M-13.75 38.375 C-14.471875 38.81585938 -15.19375 39.25671875 -15.9375 39.7109375 C-17.88792391 40.88443854 -17.88792391 40.88443854 -18.75 43 C-19.1392742 47.15125999 -19.1392742 47.15125999 -17.5625 50.875 C-15.04257359 52.43909226 -13.65716706 52.58143341 -10.75 52 C-8.61460182 50.20580708 -8.61460182 50.20580708 -7.75 47 C-7.80732551 43.28947588 -8.21654383 39.66992138 -8.75 36 C-10.63152469 36 -12.19575406 37.41469804 -13.75 38.375 Z " fill="#000000" transform="translate(218.75,348)"/>
<path d="M0 0 C4.7496069 2.89106507 6.59194934 7.27584801 8.3125 12.4375 C8.39489169 14.28360532 8.41993359 16.13255164 8.41015625 17.98046875 C8.40765869 18.94750732 8.40516113 19.9145459 8.40258789 20.91088867 C8.39348389 22.13654541 8.38437988 23.36220215 8.375 24.625 C8.354375 28.523125 8.33375 32.42125 8.3125 36.4375 C0.3925 36.4375 -7.5275 36.4375 -15.6875 36.4375 C-15.3575 41.3875 -15.0275 46.3375 -14.6875 51.4375 C-11.7175 50.9425 -11.7175 50.9425 -8.6875 50.4375 C-8.59662109 49.48037109 -8.59662109 49.48037109 -8.50390625 48.50390625 C-8.42011719 47.67761719 -8.33632813 46.85132813 -8.25 46 C-8.16878906 45.17628906 -8.08757812 44.35257813 -8.00390625 43.50390625 C-7.6875 41.4375 -7.6875 41.4375 -6.6875 40.4375 C-4.35589945 40.33840698 -2.02120058 40.30779496 0.3125 40.3125 C1.59125 40.30992187 2.87 40.30734375 4.1875 40.3046875 C7.3125 40.4375 7.3125 40.4375 8.3125 41.4375 C9.08010113 48.59758269 8.51803366 54.47380009 4.3125 60.4375 C0.28440839 65.28765113 -6.31207068 66.19176593 -12.3125 66.8125 C-18.61719584 66.11197824 -24.19893342 64.05431134 -28.6875 59.4375 C-31.62667234 53.85918004 -32.14304158 49.31363162 -32.12109375 43.06640625 C-32.1263356 42.18524643 -32.13157745 41.30408661 -32.13697815 40.39622498 C-32.14337228 38.54142302 -32.14209533 36.68658038 -32.13354492 34.83178711 C-32.12503459 32.01146457 -32.15383248 29.19316985 -32.18554688 26.37304688 C-32.18715928 24.5625006 -32.18658061 22.75195078 -32.18359375 20.94140625 C-32.19482773 20.10783096 -32.20606171 19.27425568 -32.21763611 18.41542053 C-32.14208292 11.99120952 -30.69597529 6.42868599 -26.02537537 1.78492737 C-19.25102466 -3.74590261 -7.73345717 -3.33713912 0 0 Z M-12.6875 11.4375 C-14.79383718 13.14578921 -15.62551608 13.95898416 -15.98046875 16.69921875 C-15.94566406 17.49972656 -15.91085937 18.30023438 -15.875 19.125 C-15.84792969 19.93324219 -15.82085937 20.74148437 -15.79296875 21.57421875 C-15.75816406 22.18910156 -15.72335937 22.80398437 -15.6875 23.4375 C-13.0475 23.4375 -10.4075 23.4375 -7.6875 23.4375 C-7.6875 20.1375 -7.6875 16.8375 -7.6875 13.4375 C-10.1625 12.4475 -10.1625 12.4475 -12.6875 11.4375 Z " fill="#000000" transform="translate(315.6875,203.5625)"/>
<path d="M0 0 C1.95766281 -0.08082094 3.91626728 -0.13910778 5.875 -0.1875 C7.51082031 -0.23970703 7.51082031 -0.23970703 9.1796875 -0.29296875 C10.11039063 -0.19628906 11.04109375 -0.09960938 12 0 C12.66 0.99 13.32 1.98 14 3 C15.05380859 2.27103516 15.05380859 2.27103516 16.12890625 1.52734375 C20.92170728 -1.02229598 25.70495422 -0.63138757 31 0 C35.24110163 1.86013229 36.5672026 3.22394949 38.8125 7.25 C41.08070751 14.41276057 41.15858868 21.56381849 41.16796875 29.01171875 C41.17296135 30.40859673 41.17296135 30.40859673 41.17805481 31.83369446 C41.18308885 33.78927114 41.18546423 35.7448563 41.18530273 37.70043945 C41.18750118 40.68910721 41.20572676 43.67741242 41.22460938 46.66601562 C41.22754167 48.57291541 41.22952756 50.47981694 41.23046875 52.38671875 C41.23765427 53.2763884 41.24483978 54.16605804 41.25224304 55.08268738 C41.24916641 55.91738052 41.24608978 56.75207367 41.24291992 57.61206055 C41.24434494 58.34071823 41.24576996 59.06937592 41.24723816 59.82011414 C41 62 41 62 39 67 C34.38 67 29.76 67 25 67 C23.7395864 49.66931295 23.9028105 32.36552051 24 15 C22.02 15 20.04 15 18 15 C15.32595046 19.9705862 15.8208789 24.90066815 15.9375 30.375 C16.0301856 38.88971717 15.92869717 47.36713113 15.5625 55.875 C15.52310303 56.87321777 15.48370605 57.87143555 15.44311523 58.89990234 C15.40130127 59.81723145 15.3594873 60.73456055 15.31640625 61.6796875 C15.27974854 62.49163574 15.24309082 63.30358398 15.20532227 64.14013672 C15 66 15 66 14 67 C11.81360547 67.07258946 9.62499611 67.08373783 7.4375 67.0625 C6.23996094 67.05347656 5.04242188 67.04445313 3.80859375 67.03515625 C2.41833984 67.01775391 2.41833984 67.01775391 1 67 C-0.64799012 63.38104015 -1.24903796 60.56961403 -1.24291992 56.60229492 C-1.24599655 55.5473735 -1.24907318 54.49245209 -1.25224304 53.40556335 C-1.24505753 52.27528214 -1.23787201 51.14500092 -1.23046875 49.98046875 C-1.23001053 48.80793045 -1.22955231 47.63539215 -1.2290802 46.42732239 C-1.22606171 43.94852689 -1.2181875 41.46973323 -1.20581055 38.9909668 C-1.18761798 35.21200778 -1.18530057 31.43329502 -1.18554688 27.65429688 C-1.18062872 25.2421854 -1.1747991 22.83007557 -1.16796875 20.41796875 C-1.16629951 18.73165596 -1.16629951 18.73165596 -1.16459656 17.01127625 C-1.13005552 11.24864813 -0.86534816 5.69921317 0 0 Z " fill="#000000" transform="translate(168,202)"/>
<path d="M0 0 C5.53780372 3.53476833 8.27485708 7.60638062 9.9375 13.875 C10.13452518 16.70901015 10.24170791 19.44135276 10.23828125 22.2734375 C10.24256638 23.06722809 10.2468515 23.86101868 10.25126648 24.67886353 C10.25698615 26.35132904 10.25752754 28.02381943 10.25317383 29.69628906 C10.25001807 32.23546452 10.27348702 34.77346861 10.29882812 37.3125 C10.30110201 38.94531105 10.3018042 40.57812519 10.30078125 42.2109375 C10.309991 42.96015472 10.31920074 43.70937195 10.32868958 44.48129272 C10.2714393 51.10631137 8.88504549 56.57789506 4.5 61.75 C-1.16380468 66.44681364 -6.82586944 66.94772996 -14.0625 66.875 C-19.50299942 65.89766477 -24.22189148 63.94152666 -28.0625 59.875 C-31.00481354 54.25126772 -31.62329337 49.41962425 -31.8125 43.125 C-31.84633789 42.21339111 -31.88017578 41.30178223 -31.91503906 40.36254883 C-32.10356872 34.0885201 -32.07536242 27.8336464 -31.8125 21.5625 C-31.78639648 20.80549805 -31.76029297 20.04849609 -31.73339844 19.26855469 C-31.43396847 13.97076618 -30.11881468 9.76703896 -28.0625 4.875 C-27.4025 4.875 -26.7425 4.875 -26.0625 4.875 C-25.7325 3.885 -25.4025 2.895 -25.0625 1.875 C-18.05892441 -2.52259398 -7.72346505 -2.85174094 0 0 Z M-14.69995117 14.97436523 C-16.34088774 18.46764016 -16.43530803 20.93350513 -16.42578125 24.78515625 C-16.42513672 26.10451172 -16.42449219 27.42386719 -16.42382812 28.78320312 C-16.41552979 29.46519775 -16.40723145 30.14719238 -16.39868164 30.84985352 C-16.37503063 32.9347994 -16.37813552 35.01846905 -16.38476562 37.10351562 C-16.65192676 44.82024191 -16.65192676 44.82024191 -14.0625 51.875 C-9.72065798 51.69035634 -9.72065798 51.69035634 -6.0625 49.875 C-5.94919433 47.38913073 -5.89832663 44.93209148 -5.89453125 42.4453125 C-5.89120285 41.69917694 -5.88787445 40.95304138 -5.88444519 40.18429565 C-5.87937245 38.60219948 -5.87703697 37.02009258 -5.87719727 35.43798828 C-5.87501539 33.01707263 -5.8568766 30.5966159 -5.83789062 28.17578125 C-5.83495586 26.64062656 -5.83297162 25.1054697 -5.83203125 23.5703125 C-5.82484573 22.84522491 -5.81766022 22.12013733 -5.81025696 21.37307739 C-5.82716591 17.65094941 -5.94211418 16.05557873 -8.0625 12.875 C-11.44594545 12.18095991 -12.53428138 12.19777443 -14.69995117 14.97436523 Z " fill="#000000" transform="translate(170.0625,347.125)"/>
<path d="M0 0 C2.47923801 -0.02685095 4.9581884 -0.04676547 7.4375 -0.0625 C8.14455078 -0.07087891 8.85160156 -0.07925781 9.58007812 -0.08789062 C11.38693559 -0.09653588 13.19387603 -0.05220011 15 0 C16 1 16 1 16.104599 2.81721497 C16.09578201 3.61205795 16.08696503 4.40690094 16.07788086 5.22583008 C16.07172256 6.12774582 16.06556427 7.02966156 16.05921936 7.95890808 C16.04870041 8.94828873 16.03818146 9.93766937 16.02734375 10.95703125 C15.98004896 19.56362741 16.04691681 28.15745999 16.25390625 36.76171875 C16.27850922 37.82335236 16.30311218 38.88498596 16.32846069 39.97879028 C16.43033206 44.31793662 16.53580686 48.65696225 16.64819336 52.99584961 C16.73076939 56.23019707 16.8053503 59.46465525 16.87890625 62.69921875 C16.90594131 63.65882004 16.93297638 64.61842133 16.96083069 65.60710144 C17.10798642 72.38699461 17.15654591 79.3009773 16 86 C14 88 14 88 11.50390625 88.265625 C10.04791016 88.25789063 10.04791016 88.25789063 8.5625 88.25 C7.11037109 88.25773437 7.11037109 88.25773437 5.62890625 88.265625 C3 88 3 88 0 86 C-0.28624875 83.21863025 -0.37823168 80.66081207 -0.34057617 77.87841797 C-0.34101425 77.03931885 -0.34145233 76.20021973 -0.34190369 75.33569336 C-0.3398089 72.55429035 -0.31644563 69.77348557 -0.29296875 66.9921875 C-0.28737524 65.06690805 -0.28310399 63.14162435 -0.28010559 61.21633911 C-0.26863749 56.14288597 -0.23915346 51.06968946 -0.20599365 45.99633789 C-0.17533505 40.82181267 -0.16160927 35.64724607 -0.14648438 30.47265625 C-0.11428561 20.31499125 -0.06306559 10.15751695 0 0 Z " fill="#000000" transform="translate(262,181)"/>
<path d="M0 0 C0.96808594 -0.01675781 1.93617188 -0.03351563 2.93359375 -0.05078125 C5.89997041 0.3591341 6.75636292 0.99207304 8.5625 3.3125 C9.408125 2.796875 10.25375 2.28125 11.125 1.75 C14.5625 0.3125 14.5625 0.3125 21.5625 1.3125 C21.5625 6.2625 21.5625 11.2125 21.5625 16.3125 C18.2625 16.9725 14.9625 17.6325 11.5625 18.3125 C9.65262078 23.92324016 9.3199022 28.77666029 9.4375 34.67578125 C9.44507324 35.54897507 9.45264648 36.42216888 9.46044922 37.32182312 C9.48473409 40.08975685 9.52202115 42.8572587 9.5625 45.625 C9.61556042 49.28774814 9.65555579 52.95029519 9.6875 56.61328125 C9.70409668 57.45595047 9.72069336 58.29861969 9.73779297 59.16682434 C9.755193 61.21614217 9.66803259 63.26582729 9.5625 65.3125 C8.5725 66.3025 8.5725 66.3025 7.5625 67.3125 C4.3046875 67.2890625 4.3046875 67.2890625 0.4375 66.9375 C-0.84382812 66.82664062 -2.12515625 66.71578125 -3.4453125 66.6015625 C-4.43273437 66.50617188 -5.42015625 66.41078125 -6.4375 66.3125 C-7.24623063 52.10194743 -7.56657718 37.90642755 -7.61474609 23.67504883 C-7.62159063 21.84772168 -7.63185313 20.02040418 -7.64550781 18.19311523 C-7.66336055 15.6000048 -7.66766664 13.00722722 -7.66796875 10.4140625 C-7.67511398 9.62548859 -7.68225922 8.83691467 -7.68962097 8.02444458 C-7.6620972 1.46173774 -6.52753993 0.02600614 0 0 Z " fill="#000000" transform="translate(238.4375,345.6875)"/>
<path d="M0 0 C4.73156506 2.67436286 6.35483524 5.89133048 8 11 C8.55254919 16.24921734 7.86327143 19.55699261 5 24 C1.48276325 27.82758117 -1.75674094 28.75937647 -6.7890625 29.09375 C-10.22071399 28.94823828 -12.22867976 27.99792854 -15 26 C-18.4687441 22.0625067 -19.79452747 18.45383114 -20.16796875 13.3125 C-19.80735703 8.34779917 -17.51712814 4.42518098 -13.9375 1.0625 C-9.18589079 -1.54322118 -5.13988914 -1.14923578 0 0 Z M-12 6 C-14.12848485 8.73662337 -14.9437477 10.54998157 -15.375 14 C-14.9437477 17.45001843 -14.12848485 19.26337663 -12 22 C-9.04959234 24.06528536 -6.55351395 24.6066975 -3 24 C0.52682476 20.95410588 2.83123411 18.89861629 3.25 14.1875 C2.96536066 10.55834844 2.22214094 8.85703835 0 6 C-4.03049442 3.26966507 -7.96950558 3.26966507 -12 6 Z " fill="#000000" transform="translate(201,28)"/>
</svg>
